# xmcd
#
# Track frame offsets:
#	182
#	39510
#	57040
#	74530
#	108135
#	127082
#
# Disc length: 1851 seconds
# Revision: 0
# Processed by: cddbd v1.5.2PL0 Copyright (c) Steve Scherf et al.
# Submitted via: dBpowerAMP V12.0
#
DISCID=4f073906
DTITLE=Stephanie Mills - Latin Lover
DYEAR=1999
DGENRE=House
TTITLE0=Latin Lover [MAW 12” Mix]
TTITLE1=Latin Lover [Radio W/ Intro]
TTITLE2=Latin Lover [Radio W/O Intro]
TTITLE3=Latin Lover [LUV A MAW Dub]
TTITLE4=Latin Lover [Rascal Dub]
TTITLE5=Latin Lover [Bonus Beats]
EXTD=
EXTT0=
EXTT1=
EXTT2=
EXTT3=
EXTT4=
EXTT5=
PLAYORDER=
